<?xml version="1.0" encoding="UTF-8" standalone="no" ?>
<!DOCTYPE svg PUBLIC "-//W3C//DTD SVG 1.1//EN" "http://www.w3.org/Graphics/SVG/1.1/DTD/svg11.dtd">
<svg xmlns="http://www.w3.org/2000/svg" xmlns:xlink="http://www.w3.org/1999/xlink" version="1.1" width="500" height="500" viewBox="0 0 500 500" xml:space="preserve">
<desc>Created with Fabric.js 3.6.3</desc>
<defs>
</defs>
<g transform="matrix(1 0 0 1 250.25000000000003 374.1246600678575)" style=""  ><path fill="url(#CUSTOM_SVGID_42)" opacity="1" d="M-88.67 3.16L-87.56 3.84Q-87.88 4.41-88.28 4.90Q-88.69 5.38-89.25 5.74Q-89.81 6.09-90.56 6.30Q-91.31 6.50-92.31 6.50L-92.31 6.50Q-95.23 6.50-96.62 4.75Q-98.00 3.00-98.00-0.47L-98.00-0.47Q-98.00-2.15-97.67-3.45Q-97.34-4.75-96.66-5.64Q-95.97-6.52-94.91-6.98Q-93.85-7.44-92.39-7.44L-92.39-7.44Q-91.45-7.44-90.72-7.26Q-89.98-7.07-89.43-6.74Q-88.87-6.40-88.46-5.92Q-88.05-5.45-87.74-4.87L-87.74-4.87L-88.86-4.15Q-89.11-4.62-89.42-5.00Q-89.73-5.38-90.15-5.66Q-90.57-5.94-91.12-6.10Q-91.67-6.25-92.39-6.25L-92.39-6.25Q-93.53-6.25-94.34-5.87Q-95.14-5.49-95.64-4.75Q-96.14-4.01-96.38-2.94Q-96.61-1.86-96.61-0.47L-96.61-0.47Q-96.61 0.92-96.38 2.00Q-96.14 3.07-95.63 3.81Q-95.12 4.55-94.31 4.93Q-93.49 5.31-92.33 5.31L-92.33 5.31Q-91.52 5.31-90.93 5.12Q-90.33 4.92-89.91 4.62Q-89.48 4.31-89.19 3.92Q-88.89 3.54-88.67 3.16L-88.67 3.16Z"/>
    <linearGradient id="CUSTOM_SVGID_42" gradientUnits="userSpaceOnUse" gradientTransform="matrix(1 0 0 1 -143.61341410742287 -11.187)"  x1="0" y1="0" x2="287.22682821484574" y2="22.374">
      <stop  offset="0" style="stop-color:#FFDA4E;stop-opacity:undefined"/><stop  offset="0.32" style="stop-color:#FBDE8A;stop-opacity:undefined"/><stop  offset="0.68" style="stop-color:#D8A517;stop-opacity:undefined"/><stop  offset="1" style="stop-color:#F6BE21;stop-opacity:undefined"/>
    </linearGradient>
  <path fill="url(#CUSTOM_SVGID_43)" opacity="1" d="M-75.66 6.22L-77.22 6.22L-80.65 0.55L-83.46 0.55L-83.46 6.22L-84.76 6.22L-84.76-7.16L-80.96-7.16Q-79.86-7.16-79.03-6.97Q-78.19-6.77-77.62-6.33Q-77.05-5.89-76.76-5.18Q-76.47-4.47-76.47-3.44L-76.47-3.44Q-76.47-2.55-76.66-1.90Q-76.85-1.24-77.21-0.79Q-77.57-0.33-78.10-0.06Q-78.62 0.22-79.30 0.36L-79.30 0.36L-75.66 6.22ZM-77.86-3.38L-77.86-3.38Q-77.86-4.09-78.03-4.58Q-78.19-5.08-78.56-5.40Q-78.92-5.71-79.52-5.86Q-80.11-6.00-80.98-6.00L-80.98-6.00L-83.46-6.00L-83.46-0.62L-81.04-0.62Q-80.13-0.62-79.52-0.77Q-78.91-0.91-78.55-1.24Q-78.18-1.57-78.02-2.10Q-77.86-2.63-77.86-3.38Z"/>
    <linearGradient id="CUSTOM_SVGID_43" gradientUnits="userSpaceOnUse" gradientTransform="matrix(1 0 0 1 -143.61341410742287 -11.187)"  x1="0" y1="0" x2="287.22682821484574" y2="22.374">
      <stop  offset="0" style="stop-color:#FFDA4E;stop-opacity:undefined"/><stop  offset="0.32" style="stop-color:#FBDE8A;stop-opacity:undefined"/><stop  offset="0.68" style="stop-color:#D8A517;stop-opacity:undefined"/><stop  offset="1" style="stop-color:#F6BE21;stop-opacity:undefined"/>
    </linearGradient>
  <path fill="url(#CUSTOM_SVGID_44)" opacity="1" d="M-72.89 6.22L-74.26 6.22L-69.62-7.16L-67.94-7.16L-63.27 6.22L-64.69 6.22L-66.00 2.36L-71.59 2.36L-72.89 6.22ZM-68.81-5.89L-71.19 1.17L-66.42 1.17L-68.81-5.89Z"/>
    <linearGradient id="CUSTOM_SVGID_44" gradientUnits="userSpaceOnUse" gradientTransform="matrix(1 0 0 1 -143.61341410742287 -11.187)"  x1="0" y1="0" x2="287.22682821484574" y2="22.374">
      <stop  offset="0" style="stop-color:#FFDA4E;stop-opacity:undefined"/><stop  offset="0.32" style="stop-color:#FBDE8A;stop-opacity:undefined"/><stop  offset="0.68" style="stop-color:#D8A517;stop-opacity:undefined"/><stop  offset="1" style="stop-color:#F6BE21;stop-opacity:undefined"/>
    </linearGradient>
  <path fill="url(#CUSTOM_SVGID_45)" opacity="1" d="M-52.89-5.98L-59.42-5.98L-59.42-1.52L-53.85-1.52L-53.85-0.33L-59.42-0.33L-59.42 6.22L-60.73 6.22L-60.73-7.16L-52.89-7.16L-52.89-5.98Z"/>
    <linearGradient id="CUSTOM_SVGID_45" gradientUnits="userSpaceOnUse" gradientTransform="matrix(1 0 0 1 -143.61341410742287 -11.187)"  x1="0" y1="0" x2="287.22682821484574" y2="22.374">
      <stop  offset="0" style="stop-color:#FFDA4E;stop-opacity:undefined"/><stop  offset="0.32" style="stop-color:#FBDE8A;stop-opacity:undefined"/><stop  offset="0.68" style="stop-color:#D8A517;stop-opacity:undefined"/><stop  offset="1" style="stop-color:#F6BE21;stop-opacity:undefined"/>
    </linearGradient>
  <path fill="url(#CUSTOM_SVGID_46)" opacity="1" d="M-41.02-5.98L-45.61-5.98L-45.61 6.22L-46.91 6.22L-46.91-5.98L-51.51-5.98L-51.51-7.16L-41.02-7.16L-41.02-5.98Z"/>
    <linearGradient id="CUSTOM_SVGID_46" gradientUnits="userSpaceOnUse" gradientTransform="matrix(1 0 0 1 -143.61341410742287 -11.187)"  x1="0" y1="0" x2="287.22682821484574" y2="22.374">
      <stop  offset="0" style="stop-color:#FFDA4E;stop-opacity:undefined"/><stop  offset="0.32" style="stop-color:#FBDE8A;stop-opacity:undefined"/><stop  offset="0.68" style="stop-color:#D8A517;stop-opacity:undefined"/><stop  offset="1" style="stop-color:#F6BE21;stop-opacity:undefined"/>
    </linearGradient>
  <path fill="url(#CUSTOM_SVGID_47)" opacity="1" d="M-30.73 6.22L-38.65 6.22L-38.65-7.16L-30.73-7.16L-30.73-5.98L-37.34-5.98L-37.34-1.47L-31.66-1.47L-31.66-0.28L-37.34-0.28L-37.34 5.03L-30.73 5.03L-30.73 6.22Z"/>
    <linearGradient id="CUSTOM_SVGID_47" gradientUnits="userSpaceOnUse" gradientTransform="matrix(1 0 0 1 -143.61341410742287 -11.187)"  x1="0" y1="0" x2="287.22682821484574" y2="22.374">
      <stop  offset="0" style="stop-color:#FFDA4E;stop-opacity:undefined"/><stop  offset="0.32" style="stop-color:#FBDE8A;stop-opacity:undefined"/><stop  offset="0.68" style="stop-color:#D8A517;stop-opacity:undefined"/><stop  offset="1" style="stop-color:#F6BE21;stop-opacity:undefined"/>
    </linearGradient>
  <path fill="url(#CUSTOM_SVGID_48)" opacity="1" d="M-18.32-0.47L-18.32-0.47Q-18.32 1.49-18.72 2.78Q-19.12 4.07-19.90 4.84Q-20.67 5.60-21.82 5.91Q-22.97 6.22-24.46 6.22L-24.46 6.22L-27.61 6.22L-27.61-7.16L-24.47-7.16Q-22.90-7.16-21.74-6.82Q-20.59-6.48-19.82-5.70Q-19.06-4.92-18.69-3.64Q-18.32-2.36-18.32-0.47ZM-19.73-0.49L-19.73-0.49Q-19.73-2.01-19.98-3.06Q-20.24-4.11-20.82-4.76Q-21.39-5.41-22.32-5.70Q-23.25-5.98-24.59-5.98L-24.59-5.98L-26.29-5.98L-26.29 5.03L-24.59 5.03Q-23.28 5.03-22.35 4.76Q-21.42 4.48-20.84 3.83Q-20.26 3.18-19.99 2.13Q-19.73 1.07-19.73-0.49Z"/>
    <linearGradient id="CUSTOM_SVGID_48" gradientUnits="userSpaceOnUse" gradientTransform="matrix(1 0 0 1 -143.61341410742287 -11.187)"  x1="0" y1="0" x2="287.22682821484574" y2="22.374">
      <stop  offset="0" style="stop-color:#FFDA4E;stop-opacity:undefined"/><stop  offset="0.32" style="stop-color:#FBDE8A;stop-opacity:undefined"/><stop  offset="0.68" style="stop-color:#D8A517;stop-opacity:undefined"/><stop  offset="1" style="stop-color:#F6BE21;stop-opacity:undefined"/>
    </linearGradient>
  <path fill="url(#CUSTOM_SVGID_49)" opacity="1" d=""/>
    <linearGradient id="CUSTOM_SVGID_49" gradientUnits="userSpaceOnUse" gradientTransform="matrix(1 0 0 1 -143.61341410742287 -11.187)"  x1="0" y1="0" x2="287.22682821484574" y2="22.374">
      <stop  offset="0" style="stop-color:#FFDA4E;stop-opacity:undefined"/><stop  offset="0.32" style="stop-color:#FBDE8A;stop-opacity:undefined"/><stop  offset="0.68" style="stop-color:#D8A517;stop-opacity:undefined"/><stop  offset="1" style="stop-color:#F6BE21;stop-opacity:undefined"/>
    </linearGradient>
  <path fill="url(#CUSTOM_SVGID_50)" opacity="1" d="M-5.84 5.07L-5.84 6.22L-10.81 6.22L-10.81 5.07L-8.99 5.07L-8.99-6.02L-10.81-6.02L-10.81-7.16L-5.84-7.16L-5.84-6.02L-7.68-6.02L-7.68 5.07L-5.84 5.07Z"/>
    <linearGradient id="CUSTOM_SVGID_50" gradientUnits="userSpaceOnUse" gradientTransform="matrix(1 0 0 1 -143.61341410742287 -11.187)"  x1="0" y1="0" x2="287.22682821484574" y2="22.374">
      <stop  offset="0" style="stop-color:#FFDA4E;stop-opacity:undefined"/><stop  offset="0.32" style="stop-color:#FBDE8A;stop-opacity:undefined"/><stop  offset="0.68" style="stop-color:#D8A517;stop-opacity:undefined"/><stop  offset="1" style="stop-color:#F6BE21;stop-opacity:undefined"/>
    </linearGradient>
  <path fill="url(#CUSTOM_SVGID_51)" opacity="1" d="M6.52 6.22L4.97 6.22L-1.66-5.72L-1.66 6.22L-2.92 6.22L-2.92-7.16L-1.03-7.16L5.23 4.10L5.23-7.16L6.52-7.16L6.52 6.22Z"/>
    <linearGradient id="CUSTOM_SVGID_51" gradientUnits="userSpaceOnUse" gradientTransform="matrix(1 0 0 1 -143.61341410742287 -11.187)"  x1="0" y1="0" x2="287.22682821484574" y2="22.374">
      <stop  offset="0" style="stop-color:#FFDA4E;stop-opacity:undefined"/><stop  offset="0.32" style="stop-color:#FBDE8A;stop-opacity:undefined"/><stop  offset="0.68" style="stop-color:#D8A517;stop-opacity:undefined"/><stop  offset="1" style="stop-color:#F6BE21;stop-opacity:undefined"/>
    </linearGradient>
  <path fill="url(#CUSTOM_SVGID_52)" opacity="1" d=""/>
    <linearGradient id="CUSTOM_SVGID_52" gradientUnits="userSpaceOnUse" gradientTransform="matrix(1 0 0 1 -143.61341410742287 -11.187)"  x1="0" y1="0" x2="287.22682821484574" y2="22.374">
      <stop  offset="0" style="stop-color:#FFDA4E;stop-opacity:undefined"/><stop  offset="0.32" style="stop-color:#FBDE8A;stop-opacity:undefined"/><stop  offset="0.68" style="stop-color:#D8A517;stop-opacity:undefined"/><stop  offset="1" style="stop-color:#F6BE21;stop-opacity:undefined"/>
    </linearGradient>
  <path fill="url(#CUSTOM_SVGID_53)" opacity="1" d="M24.57 2.28L24.57 2.28Q24.57 3.31 24.24 4.05Q23.91 4.80 23.28 5.28Q22.65 5.77 21.71 5.99Q20.78 6.22 19.58 6.22L19.58 6.22L15.57 6.22L15.57-7.16L19.39-7.16Q20.60-7.16 21.42-6.97Q22.24-6.78 22.74-6.41Q23.25-6.03 23.46-5.47Q23.68-4.91 23.68-4.15L23.68-4.15Q23.68-3.51 23.55-3.01Q23.41-2.51 23.15-2.14Q22.88-1.77 22.50-1.51Q22.12-1.25 21.62-1.09L21.62-1.09Q22.25-1.00 22.79-0.77Q23.33-0.53 23.73-0.12Q24.13 0.29 24.35 0.88Q24.57 1.47 24.57 2.28ZM22.32-3.85L22.32-3.85Q22.32-4.46 22.15-4.87Q21.99-5.28 21.61-5.54Q21.24-5.79 20.62-5.89Q20.00-6.00 19.09-6.00L19.09-6.00L16.88-6.00L16.88-1.43L19.01-1.43Q20.72-1.43 21.52-2.00Q22.32-2.58 22.32-3.85ZM23.19 2.28L23.19 2.28Q23.19 1.44 22.92 0.95Q22.65 0.45 22.14 0.18Q21.64-0.09 20.94-0.18Q20.24-0.26 19.37-0.26L19.37-0.26L16.88-0.26L16.88 5.03L18.99 5.03Q19.98 5.03 20.76 4.92Q21.54 4.82 22.08 4.52Q22.62 4.23 22.90 3.69Q23.19 3.15 23.19 2.28Z"/>
    <linearGradient id="CUSTOM_SVGID_53" gradientUnits="userSpaceOnUse" gradientTransform="matrix(1 0 0 1 -143.61341410742287 -11.187)"  x1="0" y1="0" x2="287.22682821484574" y2="22.374">
      <stop  offset="0" style="stop-color:#FFDA4E;stop-opacity:undefined"/><stop  offset="0.32" style="stop-color:#FBDE8A;stop-opacity:undefined"/><stop  offset="0.68" style="stop-color:#D8A517;stop-opacity:undefined"/><stop  offset="1" style="stop-color:#F6BE21;stop-opacity:undefined"/>
    </linearGradient>
  <path fill="url(#CUSTOM_SVGID_54)" opacity="1" d="M27.78 6.22L26.41 6.22L31.05-7.16L32.73-7.16L37.40 6.22L35.98 6.22L34.67 2.36L29.09 2.36L27.78 6.22ZM31.86-5.89L29.48 1.17L34.25 1.17L31.86-5.89Z"/>
    <linearGradient id="CUSTOM_SVGID_54" gradientUnits="userSpaceOnUse" gradientTransform="matrix(1 0 0 1 -143.61341410742287 -11.187)"  x1="0" y1="0" x2="287.22682821484574" y2="22.374">
      <stop  offset="0" style="stop-color:#FFDA4E;stop-opacity:undefined"/><stop  offset="0.32" style="stop-color:#FBDE8A;stop-opacity:undefined"/><stop  offset="0.68" style="stop-color:#D8A517;stop-opacity:undefined"/><stop  offset="1" style="stop-color:#F6BE21;stop-opacity:undefined"/>
    </linearGradient>
  <path fill="url(#CUSTOM_SVGID_55)" opacity="1" d="M49.39 6.22L47.84 6.22L41.21-5.72L41.21 6.22L39.94 6.22L39.94-7.16L41.84-7.16L48.09 4.10L48.09-7.16L49.39-7.16L49.39 6.22Z"/>
    <linearGradient id="CUSTOM_SVGID_55" gradientUnits="userSpaceOnUse" gradientTransform="matrix(1 0 0 1 -143.61341410742287 -11.187)"  x1="0" y1="0" x2="287.22682821484574" y2="22.374">
      <stop  offset="0" style="stop-color:#FFDA4E;stop-opacity:undefined"/><stop  offset="0.32" style="stop-color:#FBDE8A;stop-opacity:undefined"/><stop  offset="0.68" style="stop-color:#D8A517;stop-opacity:undefined"/><stop  offset="1" style="stop-color:#F6BE21;stop-opacity:undefined"/>
    </linearGradient>
  <path fill="url(#CUSTOM_SVGID_56)" opacity="1" d="M53.29 6.22L51.91 6.22L56.55-7.16L58.24-7.16L62.90 6.22L61.48 6.22L60.18 2.36L54.59 2.36L53.29 6.22ZM57.36-5.89L54.99 1.17L59.75 1.17L57.36-5.89Z"/>
    <linearGradient id="CUSTOM_SVGID_56" gradientUnits="userSpaceOnUse" gradientTransform="matrix(1 0 0 1 -143.61341410742287 -11.187)"  x1="0" y1="0" x2="287.22682821484574" y2="22.374">
      <stop  offset="0" style="stop-color:#FFDA4E;stop-opacity:undefined"/><stop  offset="0.32" style="stop-color:#FBDE8A;stop-opacity:undefined"/><stop  offset="0.68" style="stop-color:#D8A517;stop-opacity:undefined"/><stop  offset="1" style="stop-color:#F6BE21;stop-opacity:undefined"/>
    </linearGradient>
  <path fill="url(#CUSTOM_SVGID_57)" opacity="1" d="M74.55 6.22L72.99 6.22L69.57 0.55L66.75 0.55L66.75 6.22L65.45 6.22L65.45-7.16L69.25-7.16Q70.35-7.16 71.19-6.97Q72.02-6.77 72.59-6.33Q73.16-5.89 73.45-5.18Q73.74-4.47 73.74-3.44L73.74-3.44Q73.74-2.55 73.55-1.90Q73.37-1.24 73.00-0.79Q72.64-0.33 72.11-0.06Q71.59 0.22 70.91 0.36L70.91 0.36L74.55 6.22ZM72.35-3.38L72.35-3.38Q72.35-4.09 72.19-4.58Q72.02-5.08 71.65-5.40Q71.29-5.71 70.69-5.86Q70.10-6.00 69.23-6.00L69.23-6.00L66.75-6.00L66.75-0.62L69.17-0.62Q70.08-0.62 70.69-0.77Q71.30-0.91 71.66-1.24Q72.03-1.57 72.19-2.10Q72.35-2.63 72.35-3.38Z"/>
    <linearGradient id="CUSTOM_SVGID_57" gradientUnits="userSpaceOnUse" gradientTransform="matrix(1 0 0 1 -143.61341410742287 -11.187)"  x1="0" y1="0" x2="287.22682821484574" y2="22.374">
      <stop  offset="0" style="stop-color:#FFDA4E;stop-opacity:undefined"/><stop  offset="0.32" style="stop-color:#FBDE8A;stop-opacity:undefined"/><stop  offset="0.68" style="stop-color:#D8A517;stop-opacity:undefined"/><stop  offset="1" style="stop-color:#F6BE21;stop-opacity:undefined"/>
    </linearGradient>
  <path fill="url(#CUSTOM_SVGID_58)" opacity="1" d="M77.32 6.22L75.95 6.22L80.59-7.16L82.27-7.16L86.94 6.22L85.52 6.22L84.21 2.36L78.62 2.36L77.32 6.22ZM81.40-5.89L79.02 1.17L83.79 1.17L81.40-5.89Z"/>
    <linearGradient id="CUSTOM_SVGID_58" gradientUnits="userSpaceOnUse" gradientTransform="matrix(1 0 0 1 -143.61341410742287 -11.187)"  x1="0" y1="0" x2="287.22682821484574" y2="22.374">
      <stop  offset="0" style="stop-color:#FFDA4E;stop-opacity:undefined"/><stop  offset="0.32" style="stop-color:#FBDE8A;stop-opacity:undefined"/><stop  offset="0.68" style="stop-color:#D8A517;stop-opacity:undefined"/><stop  offset="1" style="stop-color:#F6BE21;stop-opacity:undefined"/>
    </linearGradient>
  <path fill="url(#CUSTOM_SVGID_59)" opacity="1" d="M98.15 2.72L98.15 2.72Q98.15 3.75 97.79 4.47Q97.42 5.19 96.79 5.64Q96.16 6.09 95.31 6.30Q94.46 6.50 93.49 6.50L93.49 6.50Q92.48 6.50 91.72 6.30Q90.95 6.09 90.38 5.74Q89.80 5.39 89.38 4.90Q88.96 4.40 88.63 3.82L88.63 3.82L89.75 3.16Q89.95 3.54 90.26 3.92Q90.56 4.31 91.01 4.62Q91.45 4.92 92.05 5.12Q92.64 5.31 93.42 5.31L93.42 5.31Q94.12 5.31 94.74 5.17Q95.35 5.02 95.80 4.71Q96.26 4.40 96.52 3.92Q96.78 3.45 96.78 2.78L96.78 2.78Q96.78 2.16 96.58 1.73Q96.38 1.30 95.96 0.98Q95.54 0.67 94.91 0.44Q94.27 0.21 93.40-0.02L93.40-0.02Q92.24-0.32 91.40-0.60Q90.56-0.89 90.00-1.29Q89.45-1.69 89.19-2.26Q88.92-2.84 88.92-3.72L88.92-3.72Q88.92-4.55 89.19-5.24Q89.46-5.92 90.01-6.41Q90.56-6.90 91.38-7.17Q92.20-7.44 93.30-7.44L93.30-7.44Q94.13-7.44 94.81-7.27Q95.49-7.10 96.03-6.79Q96.57-6.47 96.99-6.03Q97.42-5.58 97.76-5.02L97.76-5.02L96.67-4.29Q96.41-4.72 96.09-5.09Q95.78-5.45 95.37-5.71Q94.96-5.97 94.46-6.11Q93.95-6.25 93.32-6.25L93.32-6.25Q92.56-6.25 91.99-6.08Q91.42-5.90 91.04-5.58Q90.66-5.27 90.48-4.81Q90.29-4.36 90.29-3.80L90.29-3.80Q90.29-3.25 90.46-2.89Q90.63-2.53 91.03-2.26Q91.43-2.00 92.08-1.78Q92.74-1.56 93.72-1.32L93.72-1.32Q94.75-1.06 95.57-0.76Q96.39-0.46 96.97-0.02Q97.54 0.43 97.85 1.08Q98.15 1.73 98.15 2.72Z"/>
    <linearGradient id="CUSTOM_SVGID_59" gradientUnits="userSpaceOnUse" gradientTransform="matrix(1 0 0 1 -143.61341410742287 -11.187)"  x1="0" y1="0" x2="287.22682821484574" y2="22.374">
      <stop  offset="0" style="stop-color:#FFDA4E;stop-opacity:undefined"/><stop  offset="0.32" style="stop-color:#FBDE8A;stop-opacity:undefined"/><stop  offset="0.68" style="stop-color:#D8A517;stop-opacity:undefined"/><stop  offset="1" style="stop-color:#F6BE21;stop-opacity:undefined"/>
    </linearGradient>
  </g><g transform="matrix(1 0 0 1 250.25 326.519)" style=""  ><path fill="url(#CUSTOM_SVGID_60)" opacity="1" d="M-154.92-11.86L-147.63-0.55L-137.12-17.40L-134.85-17.40L-146.62 1.72L-146.62 15.80L-151.15 15.80L-151.15 2.07L-159.70-10.86Q-160.46-11.96-161.19-12.95Q-161.92-13.93-162.77-14.66Q-163.63-15.38-164.66-15.84Q-165.69-16.29-167.00-16.39L-167.00-16.39L-167.00-17.40L-162.47-17.40Q-161.06-17.40-159.95-16.92Q-158.85-16.44-157.94-15.66Q-157.04-14.88-156.31-13.90Q-155.58-12.92-154.92-11.86L-154.92-11.86Z"/>
    <linearGradient id="CUSTOM_SVGID_60" gradientUnits="userSpaceOnUse" gradientTransform="matrix(1 0 0 1 -191 -28.419499999999992)"  x1="0" y1="0" x2="382" y2="56.838999999999984">
      <stop  offset="0" style="stop-color:#FFDA4E;stop-opacity:undefined"/><stop  offset="0.32" style="stop-color:#FBDE8A;stop-opacity:undefined"/><stop  offset="0.68" style="stop-color:#D8A517;stop-opacity:undefined"/><stop  offset="1" style="stop-color:#F6BE21;stop-opacity:undefined"/>
    </linearGradient>
  <path fill="url(#CUSTOM_SVGID_61)" opacity="1" d="M-127.81 1.47L-127.81-11.36Q-127.81-13.62-128.44-15.01Q-129.07-16.39-131.33-16.39L-131.33-16.39L-132.34-16.39L-132.34-17.40L-127.81-17.40Q-126.50-17.40-125.62-17.17Q-124.74-16.94-124.22-16.27Q-123.69-15.59-123.49-14.40Q-123.29-13.22-123.29-11.36L-123.29-11.36L-123.29 2.97Q-123.29 5.64-122.83 7.73Q-122.38 9.82-121.32 11.27Q-120.27 12.73-118.58 13.51Q-116.90 14.29-114.38 14.29L-114.38 14.29Q-111.52 14.29-109.55 13.54Q-107.59 12.78-106.38 11.20Q-105.18 9.61-104.67 7.20Q-104.17 4.79-104.17 1.47L-104.17 1.47L-104.17-17.40L-102.16-17.40L-102.16 1.47Q-102.16 5.14-102.71 7.93Q-103.27 10.72-104.70 12.58Q-106.13 14.44-108.62 15.37Q-111.11 16.30-114.99 16.30L-114.99 16.30Q-118.66 16.30-121.12 15.37Q-123.59 14.44-125.07 12.58Q-126.55 10.72-127.18 7.93Q-127.81 5.14-127.81 1.47L-127.81 1.47Z"/>
    <linearGradient id="CUSTOM_SVGID_61" gradientUnits="userSpaceOnUse" gradientTransform="matrix(1 0 0 1 -191 -28.419499999999992)"  x1="0" y1="0" x2="382" y2="56.838999999999984">
      <stop  offset="0" style="stop-color:#FFDA4E;stop-opacity:undefined"/><stop  offset="0.32" style="stop-color:#FBDE8A;stop-opacity:undefined"/><stop  offset="0.68" style="stop-color:#D8A517;stop-opacity:undefined"/><stop  offset="1" style="stop-color:#F6BE21;stop-opacity:undefined"/>
    </linearGradient>
  <path fill="url(#CUSTOM_SVGID_62)" opacity="1" d="M-87.87-11.51L-79.27 8.76Q-78.02 5.84-77.19 3.98Q-76.36 2.12-75.83 0.86Q-75.30-0.40-74.95-1.25Q-74.59-2.11-74.24-2.94Q-73.89-3.77-73.49-4.77Q-73.09-5.78-72.41-7.39Q-71.73-9.00-70.72-11.39Q-69.72-13.78-68.21-17.40L-68.21-17.40L-65.79-17.40L-80.23 16.30L-81.13 16.30L-92.80-11.51Q-93.41-12.92-93.94-13.90Q-94.46-14.88-95.12-15.49Q-95.77-16.09-96.53-16.39Q-97.28-16.69-98.34-16.79L-98.34-16.79L-98.34-17.80Q-98.14-17.80-97.56-17.85Q-96.98-17.90-96.63-17.90L-96.63-17.90Q-95.72-17.90-94.56-17.70Q-93.41-17.50-92.23-16.84Q-91.04-16.19-89.91-14.93Q-88.78-13.67-87.87-11.51L-87.87-11.51Z"/>
    <linearGradient id="CUSTOM_SVGID_62" gradientUnits="userSpaceOnUse" gradientTransform="matrix(1 0 0 1 -191 -28.419499999999992)"  x1="0" y1="0" x2="382" y2="56.838999999999984">
      <stop  offset="0" style="stop-color:#FFDA4E;stop-opacity:undefined"/><stop  offset="0.32" style="stop-color:#FBDE8A;stop-opacity:undefined"/><stop  offset="0.68" style="stop-color:#D8A517;stop-opacity:undefined"/><stop  offset="1" style="stop-color:#F6BE21;stop-opacity:undefined"/>
    </linearGradient>
  <path fill="url(#CUSTOM_SVGID_63)" opacity="1" d="M-34.25 14.80L-34.25 15.80Q-35.11 16.05-36.27 16.05L-36.27 16.05Q-37.12 16.05-38.25 15.85Q-39.38 15.65-40.57 14.97Q-41.75 14.29-42.88 12.98Q-44.01 11.68-44.82 9.51L-44.82 9.51L-46.07 6.24L-60.16 6.24L-64.18 15.80L-66.45 15.80L-52.36-17.40L-50.85-17.40L-39.79 9.51Q-39.18 10.92-38.66 11.90Q-38.13 12.88-37.47 13.49Q-36.82 14.09-36.07 14.39Q-35.31 14.69-34.25 14.80L-34.25 14.80ZM-53.12-10.35L-59.40 4.23L-47.08 4.23L-53.12-10.35Z"/>
    <linearGradient id="CUSTOM_SVGID_63" gradientUnits="userSpaceOnUse" gradientTransform="matrix(1 0 0 1 -191 -28.419499999999992)"  x1="0" y1="0" x2="382" y2="56.838999999999984">
      <stop  offset="0" style="stop-color:#FFDA4E;stop-opacity:undefined"/><stop  offset="0.32" style="stop-color:#FBDE8A;stop-opacity:undefined"/><stop  offset="0.68" style="stop-color:#D8A517;stop-opacity:undefined"/><stop  offset="1" style="stop-color:#F6BE21;stop-opacity:undefined"/>
    </linearGradient>
  <path fill="url(#CUSTOM_SVGID_64)" opacity="1" d="M-28.72 15.80L-28.72-11.36Q-28.72-13.62-29.68-15.01Q-30.63-16.39-33.25-16.39L-33.25-16.39L-33.75-16.39L-33.75-17.40L-30.48-17.40Q-28.02-17.40-26.43-16.59Q-24.85-15.79-23.69-14.38L-23.69-14.38L-6.09 7.50L-6.09-17.40L-4.07-17.40L-4.07 16.30L-5.08 16.30L-26.71-10.61L-26.71 15.80L-28.72 15.80Z"/>
    <linearGradient id="CUSTOM_SVGID_64" gradientUnits="userSpaceOnUse" gradientTransform="matrix(1 0 0 1 -191 -28.419499999999992)"  x1="0" y1="0" x2="382" y2="56.838999999999984">
      <stop  offset="0" style="stop-color:#FFDA4E;stop-opacity:undefined"/><stop  offset="0.32" style="stop-color:#FBDE8A;stop-opacity:undefined"/><stop  offset="0.68" style="stop-color:#D8A517;stop-opacity:undefined"/><stop  offset="1" style="stop-color:#F6BE21;stop-opacity:undefined"/>
    </linearGradient>
  <path fill="url(#CUSTOM_SVGID_65)" opacity="1" d="M6.04 9.77L6.04-17.40L10.56-17.40L10.56 9.77Q10.56 12.03 11.19 13.41Q11.82 14.80 14.08 14.80L14.08 14.80L15.09 14.80L15.09 15.80L10.56 15.80Q9.26 15.80 8.37 15.57Q7.49 15.35 6.97 14.67Q6.44 13.99 6.24 12.83Q6.04 11.68 6.04 9.77L6.04 9.77Z"/>
    <linearGradient id="CUSTOM_SVGID_65" gradientUnits="userSpaceOnUse" gradientTransform="matrix(1 0 0 1 -191 -28.419499999999992)"  x1="0" y1="0" x2="382" y2="56.838999999999984">
      <stop  offset="0" style="stop-color:#FFDA4E;stop-opacity:undefined"/><stop  offset="0.32" style="stop-color:#FBDE8A;stop-opacity:undefined"/><stop  offset="0.68" style="stop-color:#D8A517;stop-opacity:undefined"/><stop  offset="1" style="stop-color:#F6BE21;stop-opacity:undefined"/>
    </linearGradient>
  <path fill="url(#CUSTOM_SVGID_66)" opacity="1" d=""/>
    <linearGradient id="CUSTOM_SVGID_66" gradientUnits="userSpaceOnUse" gradientTransform="matrix(1 0 0 1 -191 -28.419499999999992)"  x1="0" y1="0" x2="382" y2="56.838999999999984">
      <stop  offset="0" style="stop-color:#FFDA4E;stop-opacity:undefined"/><stop  offset="0.32" style="stop-color:#FBDE8A;stop-opacity:undefined"/><stop  offset="0.68" style="stop-color:#D8A517;stop-opacity:undefined"/><stop  offset="1" style="stop-color:#F6BE21;stop-opacity:undefined"/>
    </linearGradient>
  <path fill="url(#CUSTOM_SVGID_67)" opacity="1" d="M55.83 7.35L55.83 7.35Q55.83 9.46 55.10 11.17Q54.37 12.88 53.02 14.12Q51.66 15.35 49.72 16.00Q47.78 16.66 45.37 16.66L45.37 16.66Q43.31 16.66 41.27 16.23Q39.23 15.80 37.60 15.00Q35.96 14.19 34.93 13.06Q33.90 11.93 33.90 10.52L33.90 10.52L33.90 5.14L34.81 5.14Q35.66 10.22 38.15 12.43Q40.64 14.64 44.92 14.64L44.92 14.64Q46.23 14.64 47.41 14.32Q48.59 13.99 49.50 13.34Q50.40 12.68 50.95 11.73Q51.51 10.77 51.51 9.51L51.51 9.51Q51.51 7.30 50.12 5.74Q48.74 4.18 45.97 2.57L45.97 2.57L39.79-1.10Q36.57-3.01 35.24-4.97Q33.90-6.93 33.90-9.75L33.90-9.75Q33.90-11.71 34.61-13.27Q35.31-14.83 36.59-15.96Q37.88-17.09 39.66-17.70Q41.45-18.30 43.66-18.30L43.66-18.30Q45.52-18.30 47.46-17.90Q49.39-17.50 50.95-16.72Q52.51-15.94 53.52-14.81Q54.53-13.67 54.53-12.27L54.53-12.27L54.53-6.88L53.62-6.88Q52.76-11.96 50.35-14.13Q47.94-16.29 43.66-16.29L43.66-16.29Q42.55-16.29 41.50-15.94Q40.44-15.59 39.64-14.93Q38.83-14.28 38.33-13.32Q37.83-12.37 37.83-11.21L37.83-11.21Q37.83-10.10 38.18-9.25Q38.53-8.39 39.23-7.64Q39.94-6.88 40.99-6.15Q42.05-5.43 43.41-4.62L43.41-4.62L49.60-0.95Q51.21 0.01 52.39 0.89Q53.57 1.77 54.32 2.75Q55.08 3.73 55.46 4.84Q55.83 5.94 55.83 7.35Z"/>
    <linearGradient id="CUSTOM_SVGID_67" gradientUnits="userSpaceOnUse" gradientTransform="matrix(1 0 0 1 -191 -28.419499999999992)"  x1="0" y1="0" x2="382" y2="56.838999999999984">
      <stop  offset="0" style="stop-color:#FFDA4E;stop-opacity:undefined"/><stop  offset="0.32" style="stop-color:#FBDE8A;stop-opacity:undefined"/><stop  offset="0.68" style="stop-color:#D8A517;stop-opacity:undefined"/><stop  offset="1" style="stop-color:#F6BE21;stop-opacity:undefined"/>
    </linearGradient>
  <path fill="url(#CUSTOM_SVGID_68)" opacity="1" d="M63.83 9.77L63.83-17.40L68.36-17.40L68.36 9.77Q68.36 12.03 68.99 13.41Q69.62 14.80 71.88 14.80L71.88 14.80L72.88 14.80L72.88 15.80L68.36 15.80Q67.05 15.80 66.17 15.57Q65.29 15.35 64.76 14.67Q64.23 13.99 64.03 12.83Q63.83 11.68 63.83 9.77L63.83 9.77Z"/>
    <linearGradient id="CUSTOM_SVGID_68" gradientUnits="userSpaceOnUse" gradientTransform="matrix(1 0 0 1 -191 -28.419499999999992)"  x1="0" y1="0" x2="382" y2="56.838999999999984">
      <stop  offset="0" style="stop-color:#FFDA4E;stop-opacity:undefined"/><stop  offset="0.32" style="stop-color:#FBDE8A;stop-opacity:undefined"/><stop  offset="0.68" style="stop-color:#D8A517;stop-opacity:undefined"/><stop  offset="1" style="stop-color:#F6BE21;stop-opacity:undefined"/>
    </linearGradient>
  <path fill="url(#CUSTOM_SVGID_69)" opacity="1" d="M84.91-11.36L84.91 13.79L102.76 13.79L102.76 15.80L80.38 15.80L80.38-11.36Q80.38-13.62 79.75-15.01Q79.12-16.39 76.86-16.39L76.86-16.39L75.85-16.39L75.85-17.40L80.38-17.40Q81.69-17.40 82.57-17.17Q83.45-16.94 83.98-16.27Q84.50-15.59 84.71-14.40Q84.91-13.22 84.91-11.36L84.91-11.36Z"/>
    <linearGradient id="CUSTOM_SVGID_69" gradientUnits="userSpaceOnUse" gradientTransform="matrix(1 0 0 1 -191 -28.419499999999992)"  x1="0" y1="0" x2="382" y2="56.838999999999984">
      <stop  offset="0" style="stop-color:#FFDA4E;stop-opacity:undefined"/><stop  offset="0.32" style="stop-color:#FBDE8A;stop-opacity:undefined"/><stop  offset="0.68" style="stop-color:#D8A517;stop-opacity:undefined"/><stop  offset="1" style="stop-color:#F6BE21;stop-opacity:undefined"/>
    </linearGradient>
  <path fill="url(#CUSTOM_SVGID_70)" opacity="1" d="M104.32-17.40L108.85-17.40Q110.16-17.40 111.04-17.17Q111.92-16.94 112.45-16.27Q112.97-15.59 113.18-14.40Q113.38-13.22 113.38-11.36L113.38-11.36L113.38-1.55L123.94-12.12Q124.89-13.07 125.78-14.00Q126.66-14.93 127.64-15.69Q128.62-16.44 129.80-16.92Q130.98-17.40 132.49-17.40L132.49-17.40L135.01-17.40L135.01-16.14Q132.94-16.14 131.36-15.41Q129.77-14.68 127.71-12.62L127.71-12.62L117.90-2.81L129.47 9.26Q131.53 11.43 133.82 13.01Q136.11 14.59 138.02 14.85L138.02 14.85L138.02 15.80Q137.47 16.00 136.69 16.15Q135.91 16.30 134.75 16.30L134.75 16.30Q133.70 16.30 132.57 16.08Q131.43 15.85 130.10 15.17Q128.77 14.49 127.26 13.34Q125.75 12.18 123.94 10.27L123.94 10.27L113.38-0.80L113.38 15.80L108.85 15.80L108.85-11.36Q108.85-13.62 108.22-15.01Q107.59-16.39 105.33-16.39L105.33-16.39L104.32-16.39L104.32-17.40Z"/>
    <linearGradient id="CUSTOM_SVGID_70" gradientUnits="userSpaceOnUse" gradientTransform="matrix(1 0 0 1 -191 -28.419499999999992)"  x1="0" y1="0" x2="382" y2="56.838999999999984">
      <stop  offset="0" style="stop-color:#FFDA4E;stop-opacity:undefined"/><stop  offset="0.32" style="stop-color:#FBDE8A;stop-opacity:undefined"/><stop  offset="0.68" style="stop-color:#D8A517;stop-opacity:undefined"/><stop  offset="1" style="stop-color:#F6BE21;stop-opacity:undefined"/>
    </linearGradient>
  <path fill="url(#CUSTOM_SVGID_71)" opacity="1" d="M163.58 7.35L163.58 7.35Q163.58 9.46 162.85 11.17Q162.12 12.88 160.76 14.12Q159.40 15.35 157.46 16.00Q155.53 16.66 153.11 16.66L153.11 16.66Q151.05 16.66 149.01 16.23Q146.98 15.80 145.34 15.00Q143.71 14.19 142.68 13.06Q141.64 11.93 141.64 10.52L141.64 10.52L141.64 5.14L142.55 5.14Q143.41 10.22 145.90 12.43Q148.39 14.64 152.66 14.64L152.66 14.64Q153.97 14.64 155.15 14.32Q156.33 13.99 157.24 13.34Q158.14 12.68 158.70 11.73Q159.25 10.77 159.25 9.51L159.25 9.51Q159.25 7.30 157.87 5.74Q156.48 4.18 153.72 2.57L153.72 2.57L147.53-1.10Q144.31-3.01 142.98-4.97Q141.64-6.93 141.64-9.75L141.64-9.75Q141.64-11.71 142.35-13.27Q143.05-14.83 144.34-15.96Q145.62-17.09 147.40-17.70Q149.19-18.30 151.40-18.30L151.40-18.30Q153.26-18.30 155.20-17.90Q157.14-17.50 158.70-16.72Q160.26-15.94 161.26-14.81Q162.27-13.67 162.27-12.27L162.27-12.27L162.27-6.88L161.36-6.88Q160.51-11.96 158.09-14.13Q155.68-16.29 151.40-16.29L151.40-16.29Q150.30-16.29 149.24-15.94Q148.18-15.59 147.38-14.93Q146.57-14.28 146.07-13.32Q145.57-12.37 145.57-11.21L145.57-11.21Q145.57-10.10 145.92-9.25Q146.27-8.39 146.98-7.64Q147.68-6.88 148.74-6.15Q149.79-5.43 151.15-4.62L151.15-4.62L157.34-0.95Q158.95 0.01 160.13 0.89Q161.31 1.77 162.07 2.75Q162.82 3.73 163.20 4.84Q163.58 5.94 163.58 7.35Z"/>
    <linearGradient id="CUSTOM_SVGID_71" gradientUnits="userSpaceOnUse" gradientTransform="matrix(1 0 0 1 -191 -28.419499999999992)"  x1="0" y1="0" x2="382" y2="56.838999999999984">
      <stop  offset="0" style="stop-color:#FFDA4E;stop-opacity:undefined"/><stop  offset="0.32" style="stop-color:#FBDE8A;stop-opacity:undefined"/><stop  offset="0.68" style="stop-color:#D8A517;stop-opacity:undefined"/><stop  offset="1" style="stop-color:#F6BE21;stop-opacity:undefined"/>
    </linearGradient>
  </g><g transform="matrix(0.0026483594711317845 0 0 0.0026483594711317845 250 194.01503400473575)"  >
<linearGradient id="SVGID_35742" gradientUnits="userSpaceOnUse" gradientTransform="matrix(1 0 0 1 728.8400000000147 918.0310236217083)"  x1="0" y1="0" x2="58530.57399861054" y2="58175.66296754614">
<stop offset="0%" style="stop-color:rgb(255,218,78);stop-opacity: 1"/>
<stop offset="32%" style="stop-color:rgb(251,222,138);stop-opacity: 1"/>
<stop offset="68%" style="stop-color:rgb(216,165,23);stop-opacity: 1"/>
<stop offset="100%" style="stop-color:rgb(246,190,33);stop-opacity: 1"/>
</linearGradient>
<path style="stroke: none; stroke-width: 0; stroke-dasharray: none; stroke-linecap: butt; stroke-dashoffset: 0; stroke-linejoin: miter; stroke-miterlimit: 4; fill: url(#SVGID_35742); fill-rule: nonzero; opacity: 1;"  transform=" translate(-29994.126999305285, -30005.862507394777)" d="M 51689.99 25638.35 c -156.19 -156.19 -156.19 -409.43 0 -565.62 c 156.19 -156.19 409.43 -156.19 565.62 0 l 3122.34 3122.35 c 156.19 156.19 156.19 409.43 0 565.62 c -156.19 156.19 -409.43 156.19 -565.62 0 l -3122.34 -3122.35 z m -5188.47 -5188.46 c -156.19 -156.19 -156.19 -409.43 0 -565.62 c 156.19 -156.19 409.43 -156.19 565.62 0 l 2135.71 2135.7 l 906.33 -905.58 c 6.4 -7.41 13.11 -14.65 20.14 -21.68 l 2.2 -2.2 c 346.5 -346.51 519.74 -824.38 514.02 -1309.49 c -5.68 -482.23 -187.45 -970.28 -550.71 -1344.88 c -6.47 -5.69 -12.81 -11.59 -18.98 -17.76 l -544.42 -544.44 c -375.76 -375.75 -871.58 -563.64 -1367.68 -563.64 c -496.1 0 -991.92 187.89 -1367.66 563.62 c -156.21 156.21 -409.45 156.21 -565.64 0.02 c -156.19 -156.19 -156.19 -409.43 0 -565.62 c 532.02 -532.01 1232.81 -798.02 1933.3 -798.02 c 700.49 0 1401.28 266.01 1933.28 798 l 544.44 544.46 c 7.83 7.83 15.25 15.91 22.29 24.21 c 513.67 527.27 770.65 1215.15 778.66 1894.67 c 8.19 694.75 -242.99 1382.18 -745.28 1884.49 l -2.2 2.2 c -7.13 7.13 -14.46 13.92 -21.98 20.4 l -906.04 905.3 l 422.59 422.59 c 156.19 156.19 156.19 409.43 0 565.62 c -156.19 156.19 -409.43 156.19 -565.62 0 l -422.83 -422.82 l -1574.05 1572.75 c -156.19 155.33 -408.73 154.63 -564.06 -1.56 c -155.33 -156.19 -154.63 -408.73 1.56 -564.06 l 1572.49 -1571.19 l -2135.48 -2135.47 z m -4551.4 -5682.66 l 3050.92 3050.93 c 156.19 156.19 156.19 409.43 0 565.62 c -156.19 156.19 -409.43 156.19 -565.62 0 l -3051.16 -3051.17 l -1574.06 1572.76 c -156.19 155.33 -408.73 154.63 -564.06 -1.56 c -155.33 -156.19 -154.63 -408.73 1.56 -564.06 l 3044.68 -3042.16 c 6.4 -7.41 13.11 -14.65 20.14 -21.68 l 2.17 -2.17 c 346.52 -346.52 519.77 -824.41 514.05 -1309.53 c -5.69 -483.11 -188.11 -972.06 -552.71 -1346.95 c -6.64 -5.82 -13.15 -11.87 -19.49 -18.21 l -541.91 -541.91 c -375.77 -375.76 -871.58 -563.64 -1367.68 -563.64 c -496.1 0 -991.93 187.89 -1367.67 563.63 c -156.2 156.2 -409.44 156.2 -565.63 0.01 c -156.19 -156.19 -156.19 -409.43 0 -565.62 c 532.01 -532.01 1232.81 -798.02 1933.3 -798.02 c 700.49 0 1401.28 266.01 1933.29 798.01 l 541.92 541.92 c 7.77 7.77 15.13 15.78 22.13 24.01 c 515.43 527.63 773.3 1216.69 781.33 1897.39 c 8.19 694.76 -243 1382.21 -745.31 1884.53 l -2.17 2.17 c -7.13 7.13 -14.46 13.92 -21.98 20.4 l -906.04 905.3 z m -5825.5 -4694.25 c -156.19 -156.19 -156.19 -409.43 0 -565.62 c 156.19 -156.19 409.43 -156.19 565.62 0 l 3122.35 3122.35 c 156.19 156.19 156.19 409.43 0 565.62 c -156.19 156.19 -409.43 156.19 -565.62 0 l -3122.35 -3122.35 z m -5188.47 -5188.47 c -156.19 -156.19 -156.19 -409.43 0 -565.62 c 156.19 -156.19 409.43 -156.19 565.62 0 l 2067.48 2067.48 l 908.57 -907.81 c 6.38 -7.39 13.07 -14.61 20.08 -21.62 c 346.52 -346.52 519.76 -824.4 514.04 -1309.52 c -5.68 -483.11 -188.1 -972.08 -552.7 -1346.95 c -6.64 -5.82 -13.15 -11.87 -19.49 -18.21 l -541.93 -541.91 c -77.1 -77.1 -160.78 -145.32 -249.41 -204.04 c -354.3 -234.74 -811.79 -350.21 -1279.05 -311.41 c -467.51 38.82 -942.58 234.66 -1331.16 623.24 c -113.52 113.53 -218.62 241.15 -312.89 383.44 c -121.67 183.8 -369.32 234.17 -553.12 112.5 c -183.8 -121.67 -234.17 -369.32 -112.5 -553.12 c 127.68 -192.72 266.23 -361.77 412.89 -508.44 c 532.38 -532.38 1186.16 -800.95 1831.16 -854.5 c 645.22 -53.59 1283.96 110.51 1785.29 442.67 c 137.47 91.08 263.15 192.78 374.41 304.04 l 541.93 541.91 c 7.77 7.77 15.13 15.78 22.12 24 c 515.45 527.62 773.31 1216.7 781.33 1897.4 c 8.19 694.75 -242.99 1382.2 -745.3 1884.52 c -7.15 7.15 -14.51 13.96 -22.05 20.46 l -908.16 907.41 l 490.82 490.82 c 156.19 156.19 156.19 409.43 0 565.62 c -156.19 156.19 -409.43 156.19 -565.62 0 l -491.05 -491.05 l -1574.05 1572.75 c -156.19 155.33 -408.73 154.63 -564.06 -1.56 c -155.33 -156.19 -154.63 -408.73 1.56 -564.06 l 1572.49 -1571.19 l -2067.25 -2067.25 z m 26112.24 26112.24 c -10.32 -10.32 -19.93 -21.07 -28.89 -32.18 l -1575.7 1574.4 c -156.19 155.33 -408.73 154.63 -564.06 -1.56 c -155.33 -156.19 -154.63 -408.73 1.56 -564.06 l 3046.94 -3044.42 c 6.38 -7.39 13.07 -14.61 20.08 -21.62 c 346.51 -346.52 519.74 -824.37 514.02 -1309.49 c -5.69 -483.12 -188.11 -972.08 -552.71 -1346.95 c -6.64 -5.82 -13.15 -11.87 -19.49 -18.21 l -541.91 -541.93 c -375.74 -375.74 -871.57 -563.63 -1367.68 -563.63 c -496.11 0 -991.93 187.88 -1367.69 563.63 c -156.19 156.19 -409.43 156.19 -565.62 0 c -156.19 -156.19 -156.19 -409.43 0 -565.62 c 532.01 -532 1232.83 -798.01 1933.31 -798.01 c 700.48 0 1401.3 266.01 1933.3 798.01 l 541.91 541.93 c 7.77 7.77 15.13 15.78 22.13 24.01 c 515.44 527.62 773.3 1216.69 781.33 1897.39 c 8.19 694.75 -242.98 1382.17 -745.28 1884.49 c -7.15 7.15 -14.51 13.96 -22.05 20.46 l -909.8 909.06 c 11.02 8.89 21.68 18.44 31.92 28.68 c 532.01 532.01 798.02 1232.81 798.02 1933.3 c 0 700.48 -266.01 1401.3 -798.02 1933.3 l -541.91 541.93 c -7.77 7.77 -15.78 15.13 -24.01 22.13 c -527.63 515.43 -1216.69 773.29 -1897.39 781.32 c -694.75 8.18 -1382.21 -243.01 -1884.53 -745.33 l -2.17 -2.17 c -7.13 -7.13 -13.92 -14.46 -20.4 -21.97 l -66.42 -66.48 l -2920.26 2920.27 c -156.19 156.19 -409.43 156.19 -565.62 0 c -156.19 -156.19 -156.19 -409.43 0 -565.62 l 2920.49 -2920.51 l -2411.63 -2413.6 c -155.33 -156.19 -154.63 -408.73 1.56 -564.06 c 156.19 -155.33 408.73 -154.63 564.06 1.56 l 3042.15 3044.65 c 7.42 6.4 14.65 13.1 21.69 20.14 l 2.17 2.17 c 346.53 346.53 824.42 519.78 1309.53 514.07 c 483.11 -5.69 972.06 -188.1 1346.95 -552.7 c 5.82 -6.64 11.87 -13.15 18.21 -19.49 l 541.91 -541.93 c 375.76 -375.75 563.64 -871.57 563.64 -1367.68 c 0 -496.1 -187.89 -991.93 -563.64 -1367.68 z m -28581.63 -22027.07 c 156.19 156.19 156.19 409.43 0 565.62 c -156.19 156.19 -409.43 156.19 -565.62 0 l -2016.81 -2016.81 l -80.27 80.26 c -156.19 156.19 -409.43 156.19 -565.62 0 c -156.19 -156.19 -156.19 -409.43 0 -565.62 l 80.27 -80.26 l -341.46 -341.46 c -532.01 -532.02 -798.03 -1232.82 -798.03 -1933.3 c 0 -700.49 266.02 -1401.28 798.02 -1933.29 l 541.93 -541.94 c 532 -532 1232.8 -798.01 1933.3 -798.01 c 700.49 0 1401.29 266.01 1933.3 798.01 c 156.19 156.19 156.19 409.43 0 565.62 c -156.19 156.19 -409.43 156.19 -565.62 0 c -375.76 -375.75 -871.58 -563.63 -1367.68 -563.63 c -496.11 0 -991.94 187.89 -1367.68 563.63 l -541.92 541.93 c -375.76 375.77 -563.65 871.58 -563.65 1367.68 c 0 496.09 187.89 991.91 563.64 1367.67 l 341.47 341.47 l 2476.47 -2476.47 c 156.19 -156.19 409.43 -156.19 565.62 0 c 156.19 156.19 156.19 409.43 0 565.62 l -2476.47 2476.47 l 2016.81 2016.81 z m 16429.32 17353.75 c 7.81 -90.55 46.33 -178.95 115.63 -248.25 c 156.19 -156.19 409.43 -156.19 565.62 0 l 3122.34 3122.35 c 156.19 156.19 156.19 409.43 0 565.62 c -156.19 156.19 -409.43 156.19 -565.62 0 l -2773.22 -2773.23 l -2920.72 2920.71 c -156.19 156.19 -409.43 156.19 -565.62 0 c -156.19 -156.19 -156.19 -409.43 0 -565.62 l 3021.59 -3021.58 z m -5072.84 -4871.1 c -156.19 -156.19 -156.19 -409.43 0 -565.62 c 156.19 -156.19 409.43 -156.19 565.62 0 l 1131.6 1131.6 l 2473.94 -2473.93 c 156.19 -156.19 409.43 -156.19 565.62 0 c 156.19 156.19 156.19 409.43 0 565.62 l -2473.94 2473.93 l 1425.14 1425.14 c 156.19 156.19 156.19 409.43 0 565.62 c -156.19 156.19 -409.43 156.19 -565.62 0 l -1425.14 -1425.14 l -82.8 82.8 c -156.19 156.19 -409.43 156.19 -565.62 0 c -156.19 -156.19 -156.19 -409.43 0 -565.62 l 82.8 -82.8 l -1131.6 -1131.6 z m -5188.45 -5188.44 c -156.19 -156.19 -156.19 -409.43 0 -565.62 c 156.19 -156.19 409.43 -156.19 565.62 0 l 3122.35 3122.34 c 156.19 156.19 156.19 409.43 0 565.62 c -156.19 156.19 -409.43 156.19 -565.62 0 l -213.12 -213.12 l -2920.71 2920.72 c -156.19 156.19 -409.43 156.19 -565.62 0 c -156.19 -156.19 -156.19 -409.43 0 -565.62 l 2920.7 -2920.72 l -2343.6 -2343.6 z m -5220.36 -5718.12 c 9.79 -12.46 20.41 -24.48 31.9 -35.97 c 156.19 -156.19 409.43 -156.19 565.62 0 l 3122.35 3122.34 c 156.19 156.19 156.19 409.43 0 565.62 c -156.19 156.19 -409.43 156.19 -565.62 0 l -2841.45 -2841.45 l -2920.72 2920.71 c -156.19 156.19 -409.43 156.19 -565.62 0 c -156.19 -156.19 -156.19 -409.43 0 -565.62 l 3122.35 -3122.34 c 16.1 -16.1 33.24 -30.51 51.19 -43.29 z m 14458.77 22909.37 c -156.19 -156.19 -156.19 -409.43 0 -565.62 c 156.19 -156.19 409.43 -156.19 565.62 0 l 922.01 922.02 l 1261.91 -1261.91 c 156.19 -156.19 409.43 -156.19 565.62 0 c 156.19 156.19 156.19 409.43 0 565.62 l -1261.91 1261.91 l 1634.71 1634.72 c 156.19 156.19 156.19 409.43 0 565.62 c -156.19 156.19 -409.43 156.19 -565.62 0 l -1634.71 -1634.72 l -1294.82 1294.82 c -156.19 156.19 -409.43 156.19 -565.62 0 c -156.19 -156.19 -156.19 -409.43 0 -565.62 l 1294.82 -1294.82 l -922.01 -922.02 z m -5188.47 -5188.45 c -156.19 -156.19 -156.19 -409.43 0 -565.62 c 156.19 -156.19 409.43 -156.19 565.62 0 l 3122.36 3122.35 c 156.19 156.19 156.19 409.43 0 565.62 c -156.19 156.19 -409.43 156.19 -565.62 0 l -3122.36 -3122.35 z m -5188.45 -5188.46 c -156.19 -156.19 -156.19 -409.43 0 -565.62 c 156.19 -156.19 409.43 -156.19 565.62 0 l 2859.87 2859.89 c 156.19 156.19 156.19 409.43 0 565.62 c -156.19 156.19 -409.43 156.19 -565.62 0 l -2859.87 -2859.89 z m -5188.46 -5188.46 c -156.19 -156.19 -156.19 -409.43 0 -565.62 c 156.19 -156.19 409.43 -156.19 565.62 0 l 853.78 853.78 l 1261.92 -1261.91 c 156.19 -156.19 409.43 -156.19 565.62 0 c 156.19 156.19 156.19 409.43 0 565.62 l -1261.92 1261.91 l 1702.95 1702.95 c 156.19 156.19 156.19 409.43 0 565.62 c -156.19 156.19 -409.43 156.19 -565.62 0 l -1702.95 -1702.95 l -1294.82 1294.83 c -156.19 156.19 -409.43 156.19 -565.62 0 c -156.19 -156.19 -156.19 -409.43 0 -565.62 l 1294.82 -1294.83 l -853.78 -853.78 z m -5188.46 -5188.47 c -156.19 -156.19 -156.19 -409.43 0 -565.62 c 156.19 -156.19 409.43 -156.19 565.62 0 l 3122.34 3122.37 c 156.19 156.19 156.19 409.43 0 565.62 c -156.19 156.19 -409.43 156.19 -565.62 0 l -3122.34 -3122.37 z m 26112.25 26112.26 c -156.2 -156.19 -156.2 -409.43 -0.01 -565.62 c 156.19 -156.19 409.43 -156.19 565.62 0 c 532.01 532.01 798.02 1232.8 798.02 1933.29 c 0 700.49 -266.01 1401.28 -798.01 1933.29 l -541.94 541.93 c -7.77 7.77 -15.78 15.13 -24.01 22.13 c -527.62 515.44 -1216.68 773.3 -1897.38 781.33 c -694.75 8.19 -1382.2 -243 -1884.51 -745.3 c -7.15 -7.15 -13.96 -14.51 -20.46 -22.05 l -68.55 -68.6 l -291.93 291.93 c -156.19 156.19 -409.43 156.19 -565.62 0 c -156.19 -156.19 -156.19 -409.43 0 -565.62 l 292.16 -292.16 l -2411.62 -2413.62 c -155.33 -156.19 -154.63 -408.73 1.56 -564.06 c 156.19 -155.33 408.73 -154.63 564.06 1.56 l 2410.06 2412.05 l 2266.12 -2266.12 c 156.19 -156.19 409.43 -156.19 565.62 0 c 156.19 156.19 156.19 409.43 0 565.62 l -2266.35 2266.36 l 68.95 69.01 c 7.39 6.38 14.61 13.07 21.62 20.08 c 346.52 346.51 824.39 519.76 1309.51 514.04 c 483.11 -5.69 972.06 -188.1 1346.94 -552.71 c 5.82 -6.64 11.87 -13.15 18.21 -19.49 l 541.93 -541.92 c 375.76 -375.77 563.64 -871.58 563.64 -1367.68 c 0 -496.1 -187.89 -991.92 -563.63 -1367.67 z m -28581.64 -22027.08 c 156.19 156.19 156.19 409.43 0 565.62 c -156.19 156.19 -409.43 156.19 -565.62 0 l -2016.82 -2016.81 l -2640.38 2640.38 c -156.19 156.19 -409.43 156.19 -565.62 0 c -156.19 -156.19 -156.19 -409.43 0 -565.62 l 2640.38 -2640.38 l -341.46 -341.46 c -532.01 -532.01 -798.02 -1232.81 -798.02 -1933.31 c 0 -700.48 266.01 -1401.3 798.02 -1933.3 l 541.92 -541.91 c 532.02 -532.02 1232.83 -798.02 1933.3 -798.02 c 700.47 0 1401.28 266 1933.28 798 c 156.21 156.21 156.21 409.45 0.02 565.64 c -156.19 156.19 -409.43 156.19 -565.62 0 c -375.76 -375.76 -871.58 -563.64 -1367.68 -563.64 c -496.1 0 -991.92 187.88 -1367.66 563.62 l -541.94 541.93 c -375.76 375.75 -563.64 871.57 -563.64 1367.68 c 0 496.11 187.89 991.94 563.64 1367.69 l 354.04 354.04 c 151.02 -79.68 342.32 -56 469.39 71.07 c 127.07 127.07 150.75 318.37 71.07 469.39 l 2029.4 2029.39 z m 16019.98 17254.26 c -156.19 -156.19 -156.19 -409.43 0 -565.62 c 156.19 -156.19 409.43 -156.19 565.62 0 c 83.33 83.33 168.52 167.91 255.27 253.55 l 2317.54 -2317.55 c 156.19 -156.19 409.43 -156.19 565.62 0 c 156.19 156.19 156.19 409.43 0 565.62 l -2311 2311.01 c 322.05 312.06 656.02 632.17 989.98 952.28 c 670.43 642.63 1340.91 1285.3 1829.9 1774.29 c 156.19 156.19 156.19 409.43 0 565.62 c -156.19 156.19 -409.43 156.19 -565.62 0 c -551.78 -551.78 -1184.59 -1158.34 -1817.4 -1764.91 c -341.85 -327.67 -683.7 -655.34 -1001.49 -962.65 l -246.72 246.72 c -156.19 156.19 -409.43 156.19 -565.62 0 c -156.19 -156.19 -156.19 -409.43 0 -565.62 l 239.4 -239.4 c -89.53 -88.15 -174.98 -172.84 -255.48 -253.34 z m -4663.51 -4771.61 c -156.19 -156.19 -156.19 -409.43 0 -565.62 c 156.19 -156.19 409.43 -156.19 565.62 0 l 1139.23 1139.23 l 307.6 -307.42 c 156.19 -156.19 409.43 -156.19 565.62 0 c 156.19 156.19 156.19 409.43 0 565.62 c -72.08 72.08 -177.7 177.37 -307.96 307.06 l 1417.86 1417.87 c 156.19 156.19 156.19 409.43 0 565.62 c -156.19 156.19 -409.43 156.19 -565.62 0 l -1419.35 -1419.35 l -889.09 883.68 c -494.56 491.49 -987.99 981.84 -1759.6 1753.44 c -156.19 156.19 -409.43 156.19 -565.62 0 c -156.19 -156.19 -156.19 -409.43 0 -565.62 c 268.74 -268.74 1016.29 -1011.64 1762.72 -1753.44 c 279.05 -277.31 558.48 -555.01 887.15 -882.5 l -1138.56 -1138.57 z m -5188.44 -5188.45 c -156.19 -156.19 -156.19 -409.43 0 -565.62 c 156.19 -156.19 409.43 -156.19 565.62 0 l 2343.61 2343.61 l 2264.35 -2264.36 c 156.19 -156.19 409.43 -156.19 565.62 0 c 156.19 156.19 156.19 409.43 0 565.62 l -2264.35 2264.36 l 213.12 213.12 c 156.19 156.19 156.19 409.43 0 565.62 c -156.19 156.19 -409.43 156.19 -565.62 0 l -213.12 -213.12 l -292.37 292.38 c -156.19 156.19 -409.43 156.19 -565.62 0 c -156.19 -156.19 -156.19 -409.43 0 -565.62 l 292.37 -292.38 l -2343.61 -2343.61 z m -4341.95 -5473.19 l 2841.46 2841.47 c 156.19 156.19 156.19 409.43 0 565.62 c -156.19 156.19 -409.43 156.19 -565.62 0 l -2841.46 -2841.47 l -292.39 292.38 c -156.19 156.19 -409.43 156.19 -565.62 0 c -156.19 -156.19 -156.19 -409.43 0 -565.62 l 3122.37 -3122.35 c 156.19 -156.19 409.43 -156.19 565.62 0 c 156.19 156.19 156.19 409.43 0 565.62 l -2264.36 2264.35 z m 13580.33 22664.46 c -156.19 -156.19 -156.19 -409.43 0 -565.62 c 156.19 -156.19 409.43 -156.19 565.62 0 l 3122.36 3122.36 c 156.19 156.19 156.19 409.43 0 565.62 c -156.19 156.19 -409.43 156.19 -565.62 0 l -3122.36 -3122.36 z m -5188.45 -5188.45 c -156.19 -156.19 -156.19 -409.43 0 -565.62 c 156.19 -156.19 409.43 -156.19 565.62 0 l 2134.04 2134.03 l 1052.35 -1052.34 c 156.19 -156.19 409.43 -156.19 565.62 0 c 156.19 156.19 156.19 409.43 0 565.62 l -1052.35 1052.34 l 422.69 422.69 c 156.19 156.19 156.19 409.43 0 565.62 c -156.19 156.19 -409.43 156.19 -565.62 0 l -422.69 -422.69 l -1504.4 1504.39 c -156.19 156.19 -409.43 156.19 -565.62 0 c -156.19 -156.19 -156.19 -409.43 0 -565.62 l 1504.4 -1504.39 l -2134.04 -2134.03 z m -4551.53 -5682.77 l 3051.04 3051.03 c 156.19 156.19 156.19 409.43 0 565.62 c -156.19 156.19 -409.43 156.19 -565.62 0 l -3051.04 -3051.03 l -1504.39 1504.39 c -156.19 156.19 -409.43 156.19 -565.62 0 c -156.19 -156.19 -156.19 -409.43 0 -565.62 l 3122.35 -3122.35 c 156.19 -156.19 409.43 -156.19 565.62 0 c 156.19 156.19 156.19 409.43 0 565.62 l -1052.34 1052.34 z m -5825.38 -4694.16 c -156.19 -156.19 -156.19 -409.43 0 -565.62 c 156.19 -156.19 409.43 -156.19 565.62 0 l 3122.35 3122.37 c 156.19 156.19 156.19 409.43 0 565.62 c -156.19 156.19 -409.43 156.19 -565.62 0 l -3122.35 -3122.37 z m -5188.46 -5188.45 c -156.19 -156.19 -156.19 -409.43 0 -565.62 c 156.19 -156.19 409.43 -156.19 565.62 0 l 2065.81 2065.82 l 1052.34 -1052.34 c 156.19 -156.19 409.43 -156.19 565.62 0 c 156.19 156.19 156.19 409.43 0 565.62 l -1052.34 1052.34 l 490.91 490.91 c 156.19 156.19 156.19 409.43 0 565.62 c -156.19 156.19 -409.43 156.19 -565.62 0 l -490.91 -490.91 l -1504.39 1504.39 c -156.19 156.19 -409.43 156.19 -565.62 0 c -156.19 -156.19 -156.19 -409.43 0 -565.62 l 1504.39 -1504.39 l -2065.81 -2065.82 z m 26112.24 26112.24 c -10.28 -10.28 -19.86 -20.98 -28.78 -32.04 l -1506.02 1506.03 c -156.19 156.19 -409.43 156.19 -565.62 0 c -156.19 -156.19 -156.19 -409.43 0 -565.62 l 3122.35 -3122.36 c 156.19 -156.19 409.43 -156.19 565.62 0 c 156.19 156.19 156.19 409.43 0 565.62 l -1053.97 1053.97 c 11.06 8.92 21.76 18.5 32.03 28.77 c 532.02 532.02 798.02 1232.83 798.02 1933.31 c 0 700.47 -266 1401.28 -798 1933.28 l -541.93 541.93 c -7.77 7.77 -15.78 15.13 -24.01 22.13 c -527.63 515.44 -1216.7 773.3 -1897.39 781.32 c -694.76 8.19 -1382.21 -242.99 -1884.52 -745.3 l -2.18 -2.18 c -7.13 -7.13 -13.92 -14.46 -20.4 -21.98 l -66.42 -66.48 l -2705.38 2705.37 c -156.19 156.19 -409.43 156.19 -565.62 0 c -156.19 -156.19 -156.19 -409.43 0 -565.62 l 2705.61 -2705.6 l -2411.63 -2413.61 c -155.33 -156.19 -154.63 -408.73 1.56 -564.06 c 156.19 -155.33 408.73 -154.63 564.06 1.56 l 3042.15 3044.66 c 7.42 6.4 14.65 13.1 21.69 20.14 l 2.18 2.18 c 346.52 346.52 824.4 519.76 1309.52 514.04 c 483.1 -5.68 972.06 -188.09 1346.95 -552.7 c 5.82 -6.64 11.87 -13.15 18.21 -19.49 l 541.91 -541.91 c 375.76 -375.76 563.64 -871.58 563.64 -1367.68 c 0 -496.11 -187.88 -991.93 -563.63 -1367.68 z m -28581.63 -22027.07 c 156.19 156.19 156.19 409.43 0 565.62 c -156.19 156.19 -409.43 156.19 -565.62 0 l -2016.83 -2016.83 l -12.03 12.03 c -156.19 156.19 -409.43 156.19 -565.62 0 c -156.19 -156.19 -156.19 -409.43 0 -565.62 l 12.03 -12.03 l -341.45 -341.45 c -532.01 -532.01 -798.02 -1232.81 -798.02 -1933.3 c 0 -700.5 266.01 -1401.3 798.02 -1933.31 l 541.92 -541.9 c 532.01 -532.01 1232.81 -798.02 1933.3 -798.02 c 700.49 0 1401.28 266.01 1933.28 798.01 c 156.2 156.2 156.2 409.44 0.01 565.63 c -156.19 156.19 -409.43 156.19 -565.62 0 c -375.75 -375.75 -871.57 -563.64 -1367.67 -563.64 c -496.1 0 -991.93 187.89 -1367.67 563.63 l -541.93 541.91 c -375.75 375.75 -563.64 871.58 -563.64 1367.69 c 0 496.1 187.89 991.93 563.64 1367.68 l 341.45 341.45 l 2544.7 -2544.69 c 156.19 -156.19 409.43 -156.19 565.62 0 c 156.19 156.19 156.19 409.43 0 565.62 l -2544.7 2544.69 l 2016.83 2016.83 z m 16429.31 17353.74 c 7.81 -90.55 46.33 -178.95 115.63 -248.25 c 156.19 -156.19 409.43 -156.19 565.62 0 l 3122.35 3122.35 c 156.19 156.19 156.19 409.43 0 565.62 c -156.19 156.19 -409.43 156.19 -565.62 0 l -2773.23 -2773.23 l -2852.49 2852.49 c -156.19 156.19 -409.43 156.19 -565.62 0 c -156.19 -156.19 -156.19 -409.43 0 -565.62 l 2953.36 -2953.36 z m -5072.83 -4871.09 c -156.19 -156.19 -156.19 -409.43 0 -565.62 c 156.19 -156.19 409.43 -156.19 565.62 0 l 1131.59 1131.59 l 2542.17 -2542.15 c 156.19 -156.19 409.43 -156.19 565.62 0 c 156.19 156.19 156.19 409.43 0 565.62 l -2542.17 2542.15 l 1425.13 1425.14 c 156.19 156.19 156.19 409.43 0 565.62 c -156.19 156.19 -409.43 156.19 -565.62 0 l -1425.14 -1425.14 l -14.57 14.57 c -156.19 156.19 -409.43 156.19 -565.62 0 c -156.19 -156.19 -156.19 -409.43 0 -565.62 l 14.57 -14.57 l -1131.58 -1131.59 z m -5188.46 -5188.46 c -156.19 -156.19 -156.19 -409.43 0 -565.62 c 156.19 -156.19 409.43 -156.19 565.62 0 l 3122.36 3122.37 c 156.19 156.19 156.19 409.43 0 565.62 c -156.19 156.19 -409.43 156.19 -565.62 0 l -213.13 -213.13 l -2852.49 2852.49 c -156.19 156.19 -409.43 156.19 -565.62 0 c -156.19 -156.19 -156.19 -409.43 0 -565.62 l 2852.49 -2852.5 l -2343.61 -2343.61 z m -5151.09 -5787.09 c 156.91 -122.25 383.98 -111.25 528.25 33.02 l 3122.35 3122.35 c 156.19 156.19 156.19 409.43 0 565.62 c -156.19 156.19 -409.43 156.19 -565.62 0 l -2841.46 -2841.46 l -2852.49 2852.48 c -156.19 156.19 -409.43 156.19 -565.62 0 c -156.19 -156.19 -156.19 -409.43 0 -565.62 l 3122.36 -3122.35 c 16.41 -16.41 33.9 -31.07 52.23 -44.04 z m 14389.48 22978.36 c -156.19 -156.19 -156.19 -409.43 0 -565.62 c 156.19 -156.19 409.43 -156.19 565.62 0 l 922.02 922.02 l 1330.13 -1330.14 c 156.19 -156.19 409.43 -156.19 565.62 0 c 156.19 156.19 156.19 409.43 0 565.62 l -1330.13 1330.14 l 1634.71 1634.71 c 156.19 156.19 156.19 409.43 0 565.62 c -156.19 156.19 -409.43 156.19 -565.62 0 l -1634.71 -1634.71 l -1226.59 1226.6 c -156.19 156.19 -409.43 156.19 -565.62 0 c -156.19 -156.19 -156.19 -409.43 0 -565.62 l 1226.59 -1226.6 l -922.02 -922.02 z m -5188.44 -5188.46 c -156.19 -156.19 -156.19 -409.43 0 -565.62 c 156.19 -156.19 409.43 -156.19 565.62 0 l 3122.35 3122.35 c 156.19 156.19 156.19 409.43 0 565.62 c -156.19 156.19 -409.43 156.19 -565.62 0 l -3122.35 -3122.35 z m -5188.47 -5188.46 c -156.19 -156.19 -156.19 -409.43 0 -565.62 c 156.19 -156.19 409.43 -156.19 565.62 0 l 3122.36 3122.34 c 156.19 156.19 156.19 409.43 0 565.62 c -156.19 156.19 -409.43 156.19 -565.62 0 l -3122.36 -3122.34 z m -5188.45 -5188.46 c -156.19 -156.19 -156.19 -409.43 0 -565.62 c 156.19 -156.19 409.43 -156.19 565.62 0 l 853.78 853.79 l 1330.14 -1330.13 c 156.19 -156.19 409.43 -156.19 565.62 0 c 156.19 156.19 156.19 409.43 0 565.62 l -1330.14 1330.13 l 1702.94 1702.95 c 156.19 156.19 156.19 409.43 0 565.62 c -156.19 156.19 -409.43 156.19 -565.62 0 l -1702.94 -1702.95 l -1226.6 1226.59 c -156.19 156.19 -409.43 156.19 -565.62 0 c -156.19 -156.19 -156.19 -409.43 0 -565.62 l 1226.6 -1226.59 l -853.78 -853.79 z m -5188.46 -5188.46 c -156.19 -156.19 -156.19 -409.43 0 -565.62 c 156.19 -156.19 409.43 -156.19 565.62 0 l 3122.35 3122.35 c 156.19 156.19 156.19 409.43 0 565.62 c -156.19 156.19 -409.43 156.19 -565.62 0 l -3122.35 -3122.35 z m 26112.24 26112.24 c -156.2 -156.19 -156.2 -409.43 -0.01 -565.62 c 156.19 -156.19 409.43 -156.19 565.62 0 c 532.01 532.01 798.02 1232.81 798.02 1933.3 c 0 700.5 -266.01 1401.29 -798.01 1933.29 l -541.92 541.93 c -7.77 7.77 -15.78 15.13 -24.01 22.13 c -527.63 515.44 -1216.7 773.3 -1897.39 781.32 c -694.76 8.19 -1382.21 -242.99 -1884.52 -745.3 l -2.18 -2.18 c -8.4 -8.4 -16.32 -17.09 -23.81 -26.02 l -64.6 -66.79 c -496.03 398.6 -1102.94 597.63 -1710.42 597.44 c -699.16 -0.23 -1398.54 -265.13 -1929.36 -794.01 l -3.82 -3.83 l -0.79 0.79 l -541.92 -541.91 c -532.01 -532.01 -798.02 -1232.81 -798.02 -1933.3 c 0 -700.49 266.01 -1401.29 798.01 -1933.3 c 156.2 -156.2 409.44 -156.2 565.63 -0.01 c 156.19 156.19 156.19 409.43 0 565.62 c -375.76 375.77 -563.64 871.59 -563.64 1367.69 c 0 496.1 187.89 991.93 563.63 1367.67 l 541.93 541.92 l -0.78 0.78 l 2.27 2.26 c 376.21 374.84 871.69 562.59 1366.86 562.75 c 405.46 0.12 811.13 -126.11 1151.12 -378.89 l -2592.85 -2681.01 c -152.73 -158.78 -147.84 -411.33 10.94 -564.06 c 158.78 -152.73 411.33 -147.84 564.06 10.94 l 2596.46 2684.75 l 2610.07 -2619.55 c 155.33 -156.19 407.87 -156.89 564.06 -1.56 c 156.19 155.33 156.89 407.87 1.56 564.06 l -2621.04 2630.56 l 64.12 66.3 c 5.42 4.86 10.74 9.88 15.95 15.09 l 2.18 2.18 c 346.52 346.52 824.4 519.76 1309.52 514.04 c 483.1 -5.68 972.06 -188.09 1346.95 -552.7 c 5.82 -6.64 11.87 -13.15 18.21 -19.49 l 541.91 -541.92 c 375.75 -375.75 563.64 -871.57 563.64 -1367.68 c 0 -496.1 -187.89 -991.93 -563.63 -1367.68 z m -28581.63 -22027.07 c 156.19 156.19 156.19 409.43 0 565.62 c -156.19 156.19 -409.43 156.19 -565.62 0 l -1922.17 -1922.18 c -137.56 319.3 -185.47 669.85 -143.73 1012.09 c 50.33 412.72 233.46 812.44 549.37 1128.35 l 541.92 541.9 c 375.75 375.76 871.57 563.64 1367.68 563.64 c 496.11 0 991.94 -187.89 1367.69 -563.64 l 2923.88 -2923.89 c 156.19 -156.19 409.43 -156.19 565.62 0 c 156.19 156.19 156.19 409.43 0 565.62 l -2856.03 2856.04 l 2838.93 2838.92 c 156.19 156.19 156.19 409.43 0 565.62 c -156.19 156.19 -409.43 156.19 -565.62 0 l -2904.24 -2904.23 c -421.95 243.68 -896.16 365.56 -1370.23 365.56 c -700.48 0 -1401.3 -266.01 -1933.3 -798.02 l -541.92 -541.9 c -446.79 -446.79 -705.99 -1013.75 -777.51 -1600.21 c -70.64 -579.08 44.12 -1178.22 344.15 -1699.19 l -408.38 -408.38 c -532.02 -532.02 -798.02 -1232.83 -798.02 -1933.3 c 0 -700.47 266 -1401.28 798 -1933.28 l 541.92 -541.93 c 475.23 -475.21 1085.97 -738.15 1711.3 -788.75 c 631.79 -51.13 1279.98 116.97 1818.46 504.21 c 56.58 40.69 176.74 148.75 308.38 271.67 c 129.93 121.33 270.18 254.81 371.8 352.45 l 1328.26 -1328.25 c 156.19 -156.19 409.43 -156.19 565.62 0 c 156.19 156.19 156.19 409.43 0 565.62 l -3122.36 3122.34 c -156.19 156.19 -409.43 156.19 -565.62 0 c -156.19 -156.19 -156.19 -409.43 0 -565.62 l 1228.82 -1228.81 c -100.82 -97.39 -235.93 -226.57 -350.28 -333.35 c -115 -107.38 -210.02 -194.63 -230.24 -209.17 c -379.15 -272.65 -839.23 -390.71 -1290.34 -354.21 c -441.05 35.69 -872.21 221.52 -1208.18 557.49 l -541.9 541.91 c -375.76 375.76 -563.64 871.58 -563.64 1367.68 c 0 496.1 187.88 991.92 563.62 1367.66 l 2923.91 2923.92 z m 17453.12 17466.24 l 2799.27 2937.63 c 151.87 159.64 145.58 412.19 -14.06 564.06 c -159.64 151.87 -412.19 145.58 -564.06 -14.06 l -2850.9 -2991.81 c -419.95 240.64 -891.21 360.97 -1362.32 360.97 c -700.5 0 -1401.3 -266.01 -1933.31 -798.02 l -541.9 -541.92 c -444.43 -444.43 -703.29 -1007.5 -776.49 -1590.28 c -73.29 -583.58 41.57 -1187.98 344.56 -1712.73 l -1197.43 -1197.43 c -156.19 -156.19 -156.19 -409.43 0 -565.62 c 156.19 -156.19 409.43 -156.19 565.62 0 l 3122.35 3122.35 c 156.19 156.19 156.19 409.43 0 565.62 c -156.19 156.19 -409.43 156.19 -565.62 0 l -1331.18 -1331.18 c -139.74 322.31 -187.93 676.63 -144.54 1022.11 c 51.55 410.47 234.35 807.54 548.35 1121.54 l 541.9 541.92 c 375.75 375.75 871.58 563.64 1367.69 563.64 c 496.1 0 991.93 -187.89 1367.68 -563.64 l 2923.9 -2923.9 c 156.19 -156.19 409.43 -156.19 565.62 0 c 156.19 156.19 156.19 409.43 0 565.62 l -2865.13 2865.13 z m -11285.1 -10172.05 c -156.19 -156.19 -156.19 -409.43 0 -565.62 c 156.19 -156.19 409.43 -156.19 565.62 0 l 2346.15 2346.15 l 2856.03 -2856.03 c 156.19 -156.19 409.43 -156.19 565.62 0 c 156.19 156.19 156.19 409.43 0 565.62 l -2856.03 2856.03 l 210.59 210.6 c 156.19 156.19 156.19 409.43 0 565.62 c -156.19 156.19 -409.43 156.19 -565.62 0 l -275.9 -275.9 c -421.95 243.68 -896.16 365.56 -1370.24 365.56 c -700.47 0 -1401.28 -266 -1933.28 -798 l -541.93 -541.93 c -532.02 -532.02 -798.02 -1232.83 -798.02 -1933.31 c 0 -700.47 266 -1401.28 798 -1933.28 c 156.21 -156.21 409.45 -156.21 565.64 -0.02 c 156.19 156.19 156.19 409.43 0 565.62 c -375.76 375.76 -563.64 871.58 -563.64 1367.68 c 0 496.11 187.88 991.93 563.62 1367.67 l 541.93 541.93 c 375.76 375.76 871.58 563.64 1367.68 563.64 c 264.62 0 529.15 -53.47 775.43 -160.37 l -2251.65 -2251.66 z m 9431.22 -26927.07 c -156.19 156.19 -409.43 156.19 -565.62 0 c -156.19 -156.19 -156.19 -409.43 0 -565.62 l 3122.34 -3122.35 c 156.19 -156.19 409.43 -156.19 565.62 0 c 156.19 156.19 156.19 409.43 0 565.62 l -3122.34 3122.35 z m 13005.24 2628.35 c -156.19 156.19 -409.43 156.19 -565.62 0 c -156.19 -156.19 -156.19 -409.43 0 -565.62 l 3122.36 -3122.35 c 156.19 -156.19 409.43 -156.19 565.62 0 c 156.19 156.19 156.19 409.43 0 565.62 l -3122.36 3122.35 z m -10376.9 10376.91 c -156.19 156.19 -409.43 156.19 -565.62 0 c -156.19 -156.19 -156.19 -409.43 0 -565.62 l 3122.34 -3122.35 c 156.19 -156.19 409.43 -156.19 565.62 0 c 156.19 156.19 156.19 409.43 0 565.62 l -3122.34 3122.35 z m -5188.47 5188.45 c -156.19 156.19 -409.43 156.19 -565.62 0 c -156.19 -156.19 -156.19 -409.43 0 -565.62 l 3122.35 -3122.34 c 156.19 -156.19 409.43 -156.19 565.62 0 c 156.19 156.19 156.19 409.43 0 565.62 l -3122.35 3122.34 z m 18193.73 -2560.1 c -156.19 156.19 -409.43 156.19 -565.62 0 c -156.19 -156.19 -156.19 -409.43 0 -565.62 l 3122.35 -3122.35 c 156.19 -156.19 409.43 -156.19 565.62 0 c 156.19 156.19 156.19 409.43 0 565.62 l -3122.35 3122.35 z m -15565.38 15565.37 c -156.19 156.19 -409.43 156.19 -565.62 0 c -156.19 -156.19 -156.19 -409.43 0 -565.62 l 3122.35 -3122.34 c 156.19 -156.19 409.43 -156.19 565.62 0 c 156.19 156.19 156.19 409.43 0 565.62 l -3122.35 3122.34 z m 28570.63 -12937.03 c -156.19 156.19 -409.43 156.19 -565.62 0 c -156.19 -156.19 -156.19 -409.43 0 -565.62 l 3122.35 -3122.36 c 156.19 -156.19 409.43 -156.19 565.62 0 c 156.19 156.19 156.19 409.43 0 565.62 l -3122.35 3122.36 z m -10376.92 10376.92 c -156.19 156.19 -409.43 156.19 -565.62 0 c -156.19 -156.19 -156.19 -409.43 0 -565.62 l 3122.36 -3122.37 c 156.19 -156.19 409.43 -156.19 565.62 0 c 156.19 156.19 156.19 409.43 0 565.62 l -3122.36 3122.37 z m -5188.44 5188.45 c -156.19 156.19 -409.43 156.19 -565.62 0 c -156.19 -156.19 -156.19 -409.43 0 -565.62 l 3122.34 -3122.35 c 156.19 -156.19 409.43 -156.19 565.62 0 c 156.19 156.19 156.19 409.43 0 565.62 l -3122.34 3122.35 z" stroke-linecap="round" />
</g>
</svg>
